<?xml version="1.0" encoding="utf-8" ?><svg xmlns="http://www.w3.org/2000/svg" xmlns:xlink="http://www.w3.org/1999/xlink" width="1024" height="1024" viewBox="0 0 1024 1024"><path fill="#092664" d="M512.704 122.036C521.683 106.538 531.15 94.5632 547.346 85.9738C562.496 77.8983 580.241 76.1989 596.648 81.2522C619.59 88.4387 628.504 99.4922 638.871 119.511C679.452 125.932 698.358 158.156 693.012 197.414C701.232 204.342 707.61 211.374 713.147 220.669C721.807 235.077 724.269 252.375 719.974 268.627C715.101 287.652 704.414 300.277 687.78 310.093C674.155 360.89 627.533 392.045 575.381 380.887C546.172 374.06 528.327 356.279 512.985 331.909C510.375 336.139 507.84 340.388 505.068 344.538C467.733 400.421 382.429 396.405 348.59 339.018C342.604 328.866 340.032 321.897 336.211 310.8C326.292 305.336 319.458 299.669 312.989 290.308C303.455 276.728 299.725 259.91 302.623 243.572C305.926 225.765 316.84 209.407 331.724 199.16C331.259 197.135 330.779 195.04 330.443 192.991C327.545 176.314 331.49 159.172 341.387 145.439C353.031 129.618 366.016 122.723 384.934 119.853C388.568 113.213 391.596 106.838 396.696 101.168C409.293 87.1616 422.978 80.0043 441.568 78.7046C472.173 76.4667 498.712 95.9178 512.704 122.036Z"/><path fill="white" d="M441.77 97.1837C470.832 93.8486 497.924 121.755 502.835 148.48C504.633 158.263 504.238 171.721 504.513 181.97C504.988 202.741 505.14 223.518 504.969 244.293C504.978 265.803 505.661 282.17 502.772 303.684C488.563 277.158 463.407 252.976 431.272 249.479C429.801 249.318 426.362 250.935 425.659 252.347C418.05 267.631 435.009 268.508 443.81 272.072C449.634 274.465 455.17 277.509 460.31 281.145C475.797 292.166 488.69 311.221 491.883 330.025C483.99 345.115 471.166 354.162 456.045 361.116C456.25 326.241 434.417 303.299 400.351 297.699C394.097 296.585 386.569 298.885 386.374 306.323C386.1 316.786 401.947 316.454 409.72 319.347C416.273 321.741 422.173 325.639 426.948 330.726C436.259 340.801 437.899 352.128 437.341 365.179C420.748 368.012 400.232 362.081 386.597 352.504C377.075 345.817 361.626 330.177 359.587 318.249L360.098 317.647C364.214 315.189 367.083 311.57 366.666 306.514C365.977 298.166 356.75 298.204 350.591 295.911C345.718 294.096 341.155 292.077 337.042 288.788C327.812 281.544 321.966 270.824 320.877 259.141C319.118 239.534 329.628 219.408 348.376 212.26C354.063 209.372 363.837 210.474 368.011 205.332C371.258 201.33 369.468 194.706 365.616 192.015C361.293 188.996 353.301 191.434 348.57 192.298C347.094 167.454 354.149 149.939 378.178 140.11C383.267 156.751 390.405 164.217 401.389 177.107C407.477 184.252 408.887 198.99 407.649 208.256C405.267 226.071 392.994 242.499 375.56 248.098C371.068 249.541 364.882 249.048 361.275 252.045C359.214 253.777 357.985 256.303 357.895 258.994C357.675 264.825 362.261 269.217 367.982 268.794C393.067 266.941 413.952 249.482 421.941 225.896C426.038 213.8 426.39 205.118 426.368 192.6C440.201 197.397 453.849 198.204 467.941 193.769C475.83 191.286 490.871 185.646 486.705 174.643C485.917 172.52 484.256 170.837 482.143 170.021C475.693 167.478 470.061 173.25 464.195 175.104C433.494 184.81 408.369 166.099 397.249 138.6L397.71 137.842C402.358 130.322 402.525 123.06 408.809 115.354C417.509 104.685 428.252 98.8496 441.77 97.1837Z"/><path fill="#092664" d="M450.804 121.574C456.991 121.117 462.116 124.351 463.35 130.621C464.036 134.099 463.229 137.705 461.124 140.558C458.188 144.544 455.162 145.286 450.701 146.042C430.757 143.929 434.912 126.924 450.804 121.574Z"/><path fill="white" d="M571.653 97.6595C590.77 95.5162 608.125 102.537 617.955 119.737C622.499 127.689 621.481 134.302 629.16 138.64C626.942 163.652 616.391 177.877 592.019 184.841C586.918 173.072 581.923 162.99 579.877 149.979C578.805 143.167 580.949 129.658 574.318 126.067C570.527 123.307 561.93 126.104 560.974 130.808C557.641 147.204 565.757 171.892 571.966 185.644C567.084 184.599 558.748 182.076 554.747 184.859C552.481 186.322 550.782 188.787 550.294 191.487C548.625 200.718 558.186 202.458 564.995 203.521C585.118 206.664 603.686 204.177 620.42 191.915C639.593 177.865 644.311 163.498 647.738 141.042C669.244 149.199 678.113 169.876 674.821 191.765C669.965 198.017 668.911 199.752 672.28 207.36C677.077 211.001 682.976 213.214 687.704 217.498C710.84 238.458 707.148 278.169 679.518 293.658C668.994 299.556 656.541 300.973 644.961 297.59C629.558 293.245 617.321 279.701 614.788 263.773C613.135 253.381 615.234 240.577 625.478 235.241C630.579 232.629 636.517 232.182 641.95 234.003C655.111 238.407 662.973 253.044 668.967 264.565C671.151 264.226 673.331 263.867 675.508 263.487C682.633 251.721 679.759 246.768 672.882 236.243C663.059 222.694 650.865 214.167 633.7 214.465C609.751 214.881 594.603 235.645 595.442 258.502C596.164 275.178 603.436 290.895 615.678 302.242C631.228 316.461 646.236 318.527 666.34 317.608C665.136 320.545 663.713 323.387 662.082 326.11C651.296 344.273 633.721 357.392 613.241 362.568C591.535 367.89 574.06 363.377 555.434 352C571.029 341.414 579.744 330.177 581.461 310.637C581.688 308.058 582.021 304.189 581.024 301.789C577.968 294.436 566.7 295.233 563.89 302.506C562.88 305.165 563.056 308.215 562.548 311.02C560.277 323.569 552.719 333.561 540.989 338.96C521.913 317.253 523.505 299.193 523.485 272.642C523.517 260.296 523.36 247.949 523.015 235.608C533.808 247.473 549.56 258.068 566.326 258.128C572.929 258.151 575.74 252.282 574.353 246.358C572.784 239.653 562.673 239.367 556.932 237.196C553.204 235.752 549.668 233.857 546.401 231.553C522.895 215.111 522.501 192.725 522.423 167.234C522.326 135.322 537.812 103.091 571.653 97.6595Z"/><path fill="#092664" d="M253.703 592.68C257.802 592.071 265.113 592.764 269.155 593.859C297.843 601.635 309.503 627.647 323.437 650.891L346.291 688.363C357.329 668.96 369.95 650.123 381.502 630.979C391.111 615.054 397.046 602.434 417.726 603.515C406.854 613.995 408.978 629.453 408.994 643.516L409.004 678.086L408.986 707.973C408.967 721.036 407.568 731.849 415.72 743.605C423.765 755.207 439.266 766.662 453.766 757.906C458.3 755.169 459.522 748.554 460.335 743.594C465.554 746.857 470.377 751.95 470.389 758.559C470.42 774.876 457.253 781.361 443.005 781.549C421.738 781.83 405.337 769.177 395.243 751.201C386.095 735.426 387.097 724.934 387.071 707.513L386.975 661.077C381.668 670.574 374.83 680.994 369.141 690.304L346.372 728.207C331.835 706.707 318.819 682.42 304.539 660.449C304.207 681.383 304.439 702.697 304.724 723.635C304.798 729.011 308.103 732.408 312.026 735.498C299.819 735.372 287.612 735.372 275.406 735.497C278.835 732.999 281.603 729.989 282.823 725.834C283.934 722.048 283.821 642.832 283.041 634.706C282.673 630.868 282.036 627.848 279.992 624.472C276.199 618.209 269.696 613.071 262.499 611.42C257.621 610.302 253.13 611.144 248.993 613.967C245.864 616.103 242.943 619.509 242.277 623.339C241.875 625.652 242.437 627.788 243.842 629.657C245.255 631.538 247.09 632.653 249.452 632.877C252.459 633.163 255.707 632.013 257.923 629.973C260.034 628.029 259.878 626.115 260.006 623.475L260.74 622.819C263.286 623.299 268.174 629.884 268.572 632.262C270.524 643.917 263.081 652.666 251.865 654.503C244.97 655.628 237.916 653.885 232.337 649.68C214.718 636.593 219.24 607.499 237.566 597.743C243.729 594.462 246.794 593.482 253.703 592.68Z"/><path fill="#092664" d="M241.263 396.13C244.084 397.41 245.782 399.484 247.368 402.03C254.71 414.155 247.759 426.933 236.291 433.002C226.107 438.392 217.457 438.139 206.341 437.793C195.785 437.465 188.089 436.431 177.909 433.446L177.935 511.845C177.906 521.95 177.79 532.084 177.858 542.187C177.925 552.169 177.163 558.785 186.558 564.49C173.969 564.241 161.378 564.123 148.786 564.136C158.618 556.637 156.611 549.33 156.585 538.011L156.537 514.209L156.387 430.555C146.031 430.403 135.044 428.147 124.995 432.638C117.068 436.181 109.022 446.836 113.249 456.03C113.942 457.275 115.618 458.693 117.067 458.853C125.858 459.824 129.459 456.207 130.652 448.46L130.76 447.726C151.014 460.989 134.328 487.561 110.039 480.473C103.341 478.559 97.6977 474.024 94.3864 467.894C85.7839 452.294 91.0017 432.347 104.46 421.439C122.229 407.038 148.249 409.649 169.409 412.116C194.041 414.988 232.172 430.13 241.263 396.13Z"/><path fill="#092664" d="M582.277 444.41C595.261 444.402 608.244 444.477 621.228 444.635C616.429 450.317 610.12 456.872 605.009 462.527L573.154 497.706C581.88 510.94 591.655 523.808 601.074 537.099C612.154 552.735 620.88 578.572 642.202 582.292C647.502 583.217 651.498 581.37 655.535 578.287C658.803 574.201 659.083 572.6 660.578 567.664C673.755 573.851 672.807 586.845 662.686 595.798C656.843 600.967 646.671 603.184 638.949 602.22C610.736 598.701 598.239 570.319 584.173 549.417C575.639 536.81 566.937 524.237 557.583 512.65C554.669 515.637 551.226 520.081 548.513 523.388C548.546 533.884 545.94 555.661 553.938 562.661L556.019 564.456L519.113 564.36C522.28 561.913 526.808 557.301 526.968 553.025C528.113 522.426 527.314 491.55 527.297 460.899C527.292 452.649 525.623 450.03 519.709 444.764C532.148 444.555 544.59 444.48 557.031 444.541C545.238 452.824 548.428 463.71 548.109 476.215C547.941 482.825 548.138 489.566 548.088 496.195C548.549 495.736 549.007 495.274 549.46 494.808C560.866 483.109 573.387 469.157 583.64 456.321C587.368 451.654 586.694 448.196 582.277 444.41Z"/><path fill="#092664" d="M696.558 442.078C699.473 442.833 704.34 448.501 706.685 450.888L723.168 467.647L775.331 519.378C775.891 503.204 775.287 486.763 775.546 470.566C775.639 464.71 775.8 458.993 774.168 453.32C772.701 448.226 770.102 446.949 765.791 444.542L802.917 444.597C792.095 452.777 796.17 463.439 795.37 475.528C795.069 480.082 795.345 485.217 795.331 489.831L795.386 567.158L795.009 567.223C792.325 565.958 722.738 495.503 716.563 489.185C716.308 507.385 716.576 525.677 716.388 543.887C716.287 553.714 715.626 558.827 724.574 564.546C712.446 564.056 700.305 563.98 688.172 564.319C691.474 561.872 695.529 557.835 695.917 553.478C696.94 541.969 696.507 529.95 696.496 518.347L696.558 442.078Z"/><path fill="#092664" d="M870.346 444.689C879.501 443.875 888.641 444.788 897.334 447.832C906.582 451.07 910.982 453.739 920.932 454.509L909.836 476.578C904.157 473.075 897.848 469.059 891.561 466.847C881.33 463.298 870.114 463.911 860.331 468.555C839.408 478.608 833.301 505.864 843.153 525.692C847.484 534.618 855.271 541.39 864.712 544.441C876.861 548.425 891.051 546.03 902.3 540.388C902.395 530.092 902.433 519.796 902.415 509.5C891.506 509.295 887.519 509.254 878.529 516.006C878.604 508.55 878.608 501.092 878.539 493.635L878.869 493.278C881.145 492.707 891.948 492.905 895.146 492.91L930.418 493.026C925.762 495.805 922.966 497.897 922.081 503.667C921.113 509.979 921.488 516.735 921.515 523.112C921.528 533.25 921.622 543.388 921.796 553.524C895.096 566.864 866.46 573.75 840.804 553.7C827.725 543.536 819.23 528.584 817.192 512.147C815.214 495.93 819.819 479.597 829.976 466.802C839.757 454.505 854.778 446.49 870.346 444.689Z"/><path fill="#092664" d="M395.905 442.436C400.673 443.735 420.517 465.819 425.372 470.444C442.052 486.332 457.921 503.745 474.658 519.54C474.584 507.44 474.606 495.339 474.723 483.239C474.781 474.016 475.637 461.987 473.625 453.168C472.576 448.571 469.474 446.583 465.672 444.477L502.334 444.567C498.61 447.487 495.561 449.56 495.178 454.656C494.29 466.465 494.731 478.65 494.694 490.5L494.572 566.799C493.854 566.848 493.407 566.59 492.898 566.095C478.497 552.092 464.584 537.58 450.376 523.387C438.756 511.78 426.706 500.655 415.196 488.915C415.149 502.121 415.169 515.326 415.255 528.531C415.3 535.991 415.036 544.468 416.058 551.805C416.961 558.293 418.738 560.809 423.878 564.461C412 564.316 400.121 564.295 388.242 564.397C392.433 561.597 395.034 559.459 395.449 554.134C396.311 543.054 395.975 531.644 395.964 520.522L395.963 470.997C395.938 461.662 395.656 451.721 395.905 442.436Z"/><path fill="#092664" d="M639.082 614.07C650.165 614.766 664.12 614.394 675.388 614.394C671.792 617.35 669.007 621.383 668.553 626.156C667.277 639.576 667.988 653.678 668.113 667.211C686.19 666.839 704.777 667.159 722.879 667.336C722.915 658.552 723.027 649.745 722.959 640.963C722.881 630.912 724.29 620.658 714.738 614.449L750.788 614.349C748.102 617.058 744.319 621.374 744.04 625.23C743.111 638.056 743.488 651.698 743.488 664.573L743.509 700.532C743.519 711.796 741.138 727.107 750.173 734.928L750.773 735.308C740.088 735.785 726.403 735.423 715.489 735.422C719.243 732.707 722.465 729.199 722.76 724.249C723.522 711.464 722.992 698.306 722.879 685.457C704.94 684.752 686.161 685.072 668.216 685.265C668.184 695.428 668.08 705.611 668.171 715.774C668.252 724.728 668.048 730.43 676.161 735.464C664.028 735.394 651.895 735.403 639.762 735.491C650.113 727.773 647.539 717.153 647.511 705.31L647.514 675.013L647.558 643.88C647.569 632.004 649.906 621.618 639.082 614.07Z"/><path fill="#092664" d="M207.699 444.233C218.828 444.784 232.622 444.446 243.977 444.537C237.028 449.317 236.418 456.298 236.469 464.111C236.534 474.142 236.696 484.176 236.834 494.207L291.517 494.292C291.578 482.301 292.154 467.138 290.979 455.338C290.471 450.237 287.387 446.977 283.246 444.363C295.329 444.702 308.135 444.566 320.271 444.607C309.83 451.794 312.432 462.453 312.442 474.058L312.498 505.74L312.522 535.188C312.514 546.365 310.19 556.573 319.713 564.178L319.012 564.454C307.251 564.214 295.487 564.125 283.723 564.187C285.143 563.171 286.637 562.123 287.881 560.895C293.428 555.421 291.478 521.175 291.472 512.486L236.715 512.433C236.624 520.681 236.609 529.098 236.731 537.352C236.882 547.528 234.951 557.958 244.756 564.016L208.789 564.087C213.379 560.914 215.348 558.206 215.871 552.569C216.547 545.279 216.422 538.015 216.434 530.704L216.438 498.268C216.431 484.647 216.921 468.602 215.636 455.021C215.172 450.116 211.498 446.91 207.699 444.233Z"/><path fill="#092664" d="M483.855 611.287C484.213 611.321 486.239 611.635 486.349 611.869C504.851 651.064 520.104 692.169 539.647 730.787C540.592 732.655 544.742 734.519 546.695 735.432L510.793 735.492C512.109 734.434 513.815 733.272 514.286 731.647C515.765 726.538 510.153 716.339 507.937 711.442C501.147 711.154 493.602 711.265 486.75 711.24L461.977 711.231C459.212 715.687 453.849 726.078 455.359 731.383C456.053 733.821 458.055 734.657 460.148 735.905C448.27 735.349 436.369 735.505 424.479 735.542C426.763 733.588 430.362 730.218 431.701 727.577C438.257 714.651 444.024 700.438 449.88 687.161C460.98 661.991 473.222 636.583 483.855 611.287Z"/><path fill="white" d="M485.032 654.76C486.831 656.523 498.832 688.433 500.891 693.663C495.562 693.979 489.276 693.855 483.875 693.88C478.867 693.882 473.764 693.786 468.749 693.735C473.123 683.474 480.305 663.53 485.032 654.76Z"/><path fill="#092664" d="M617.794 614.255L627.514 614.204C627.513 623.062 627.401 632.112 627.857 640.942C619.301 628.346 605.113 631.809 591.729 632.049C591.018 650.72 591.788 670.514 591.457 689.334C591.268 700.072 591.118 712.823 591.848 723.52C592.203 728.715 595.902 732.566 599.973 735.515C588.032 735.344 575.77 735.477 563.805 735.48C568.872 732.272 570.397 729.896 571.103 723.942L570.902 631.981C555.735 631.864 545.154 628.363 534.526 641.177L534.765 614.457L617.794 614.255Z"/><path fill="#092664" d="M335.667 444.64C341.695 444.349 366.579 444.134 372.196 444.744C368.242 448.252 365.736 450.75 365.318 456.288C364.805 463.101 364.914 469.876 364.899 476.699L364.828 510.064L364.63 536.21C364.539 548.02 362.416 556.756 372.839 564.41C361.027 564.304 347.738 563.871 336.073 564.415C338.002 563.101 339.599 561.775 340.988 559.862C342.398 557.932 343.312 555.685 343.647 553.318C344.297 548.43 344.105 539.947 344.111 534.858L344.113 503.902L344.125 473.271C344.123 467.785 344.375 460.352 343.567 455.047C342.75 449.683 339.731 447.359 335.667 444.64Z"/><path fill="#092664" d="M634.498 444.556C646.966 444.427 659.435 444.386 671.903 444.434C666.461 448.159 664.094 450.509 663.451 457.39C662.793 464.445 662.982 471.374 662.975 478.443L662.964 510.764C662.967 523.909 662.745 537.388 663.331 550.524C663.597 556.48 666.237 560.339 671.01 563.736L671.004 563.968C670.744 564.093 638.902 564.317 635.434 564.433C644.803 555.7 642.584 544.453 642.574 532.571L642.546 501.101L642.506 472.479C642.483 462.189 644.242 450.875 634.498 444.556Z"/><path fill="#092664" d="M476.248 834.543C483.027 834.189 481.27 834.861 487.217 838.033C487.887 836.1 487.909 835.202 489.389 834.364C490.061 834.646 490.963 834.872 491.068 835.756C491.553 839.845 491.597 844.547 491.545 848.67C491.433 854.877 492.367 860.303 489.551 866.089C484.987 875.469 469.817 873.737 467.157 863.889C467.609 861.915 467.293 862.62 469.208 861.114C472.004 868.152 477.962 872.641 485.019 866.535C488.365 863.64 488.012 859.433 487.943 855.329C469.905 870.563 456.314 841.425 476.248 834.543Z"/><path fill="white" d="M476.236 838.266C479.443 837.329 482.906 838.186 485.305 840.511C487.704 842.836 488.669 846.27 487.833 849.504C486.997 852.739 484.487 855.275 481.262 856.145C476.347 857.472 471.28 854.594 469.903 849.693C468.525 844.792 471.35 839.695 476.236 838.266Z"/><path fill="#092664" d="M730.671 834.541C733.054 834.44 735.307 834.243 737.383 835.638C743.258 839.587 741.089 835.808 744.285 834.625L745.262 835.358C746.4 843.258 745.346 855.28 745.051 863.417C745.013 864.466 743.485 866.715 742.8 867.534C737.616 873.724 730.303 874.028 724.48 868.501C722.786 866.89 722.057 865.392 721.997 863C722.721 861.365 722.145 862.061 724.165 861.189C726.736 867.701 731.912 872.717 739.069 866.795C742.204 864.201 742.107 859.967 742.063 856.133C738.059 858.987 734.429 860.673 729.407 859.101C726.265 858.108 723.689 855.834 722.314 852.84C718.71 845.045 722.897 837.416 730.671 834.541Z"/><path fill="white" d="M730.709 838.386C735.46 836.967 740.472 839.615 741.978 844.339C743.484 849.063 740.928 854.123 736.232 855.714C733.117 856.77 729.675 856.062 727.23 853.863C724.785 851.663 723.717 848.315 724.439 845.106C725.16 841.897 727.558 839.328 730.709 838.386Z"/><path fill="#092664" d="M563.23 834.566C568.544 834.274 569.207 835.253 573.764 838.129C574.374 836.183 574.321 835.109 576.269 834.391C576.742 834.556 577.898 834.928 577.906 835.578C577.964 840.616 578.025 845.659 578.062 850.696C578.08 853.094 578.126 855.483 577.921 857.869C577.838 858.832 577.062 859.09 576.37 859.495C575.275 859.046 575.004 858.201 574.485 857.029L574.147 856.256L573.29 856.676C555.099 867.733 544.433 841.158 563.23 834.566Z"/><path fill="white" d="M563.522 838.338C566.709 837.538 570.08 838.514 572.348 840.893C574.615 843.271 575.427 846.685 574.475 849.83C573.523 852.976 570.954 855.366 567.748 856.088C562.874 857.186 558.024 854.16 556.867 849.3C555.71 844.44 558.677 839.554 563.522 838.338Z"/><path fill="#092664" d="M673.355 834.723C680.175 833.218 686.921 837.536 688.41 844.36C689.9 851.183 685.566 857.919 678.74 859.393C671.935 860.862 665.225 856.546 663.74 849.744C662.256 842.943 666.557 836.223 673.355 834.723Z"/><path fill="white" d="M675.254 837.557C679.507 837.811 682.667 839.429 684.237 843.611C685.221 846.265 685.026 849.212 683.701 851.714C682.174 854.58 680.392 855.405 677.476 856.349C672.849 856.122 669.37 854.987 667.637 850.18C666.775 847.751 666.946 845.076 668.108 842.776C669.783 839.515 671.959 838.531 675.254 837.557Z"/><path fill="#092664" d="M513.638 834.57C523.227 833.951 521.745 837.092 524.668 837.595C525.342 837.711 531.344 833.763 535.313 834.437C536.941 834.714 538.306 835.536 539.212 836.938C541.976 841.21 541.513 853.798 540.409 858.672L539.618 859.025C534.879 857.341 539.725 841.824 535.69 838.762C527.877 832.831 525.454 843.907 525.528 849.25C525.481 852.787 526.609 856.164 524.155 858.854L522.587 858.766L523.613 859.151L523.082 859.176C520.265 856.353 524.935 841.502 518.541 837.448C506.2 834.74 512.447 856.518 508.019 859.077L506.847 858.701C506.23 852.705 506.379 841.64 506.659 835.502C507.562 834.497 506.984 834.768 508.367 834.56C509.531 835.154 509.727 835.824 510.38 836.987L510.638 837.455C511.882 835.827 511.949 835.645 513.638 834.57Z"/><path fill="#092664" d="M614.394 817.096C615.941 817.239 616.019 817.245 617.49 817.731C618.354 819.93 618.017 834.406 618.002 837.623C623.039 833.486 629.473 831.779 632.62 838.875C634.117 842.248 634.262 855.326 632.904 858.615C631.615 858.984 631.701 859.029 630.427 858.654C629.605 857.106 629.938 846.423 629.929 843.875C629.762 839.227 626.664 835.792 622.102 838.016C615.6 841.187 619.614 853.112 617.342 858.854C615.531 858.93 616.258 859.21 614.854 858.478C613.947 854.61 614.377 823.38 614.394 817.096Z"/><path fill="#092664" d="M301.632 817.315C303.515 817.437 304.029 817.131 305.277 818.069C305.781 822.859 305.415 833.011 305.357 838.213C310.328 833.962 316.736 831.709 320.001 839.611C321.585 843.442 321.689 855.505 319.93 859.173L319.092 859.384C316.588 857.784 317.533 847.226 317.534 843.875C317.443 834.86 309.868 837.243 305.595 842.392C304.741 847.934 305.719 853.37 304.782 858.498C303.509 859.282 304.213 859.077 302.547 858.897C300.676 856.659 301.585 850.126 301.574 846.908L301.632 817.315Z"/><path fill="#092664" d="M387.421 816.941C388.846 817.038 389.709 816.918 390.773 817.832C391.381 822.22 391.023 839.54 391.032 845.131C393.04 842.797 395.221 840.175 397.344 837.97C399.969 835.244 400.246 835.26 403.484 835.22L403.843 835.727C402.685 837.528 396.214 843.984 394.354 845.996L402.407 854.715C403.938 856.247 404.57 856.84 405.803 858.585L405.449 859.056C400.813 859.361 394.441 851.257 391.137 847.979C391.234 850.769 391.681 856.337 390.808 858.743C389.338 858.979 389.272 859.155 387.975 858.541C387.191 855.482 387.424 822.496 387.421 816.941Z"/><path fill="#092664" d="M442.158 834.565C452.438 833.431 453.475 840.398 453.49 849.056C453.495 851.776 453.784 856.314 452.665 858.736L451.129 858.952C446.627 857.025 455.803 837.55 442.962 837.634C433.044 843.257 439.596 851.988 437.24 858.44L435.623 859.169C435.012 859.004 434.456 859.026 434.393 858.537C433.838 854.236 433.652 838.549 434.573 835.117L435.774 834.893C437.832 836.007 436.107 836.608 437.725 837.837C439.181 836.636 440.618 835.65 442.158 834.565Z"/><path fill="#092664" d="M593.988 825.751C600.186 826.233 596.359 829.654 597.648 834.2C599.184 835.222 599.938 833.963 602.564 834.793C603.02 836.343 602.911 835.544 602.444 837.289C600.909 838.378 600.466 837.828 598.056 838.111C596.833 840.017 597.303 854.651 597.257 858.48C596.626 858.821 595.927 858.88 595.171 859.04L594.247 858.417C593.01 854.385 594.312 846.05 593.942 841.447C593.436 835.141 592.197 839.687 589.493 837.315C589.284 835.268 588.972 836.052 589.838 834.629C591.429 834.625 591.865 834.758 593.318 834.12C594.455 832.444 594.016 828.048 593.988 825.751Z"/><path fill="#092664" d="M281.794 825.302C284.001 825.6 283.255 825.114 284.636 826.253C285.552 828.765 285.094 831.88 285.045 834.773C287.067 834.664 287.536 834.648 289.522 834.919C290.265 836.171 290.017 835.496 289.964 837.062C288.141 838.551 287.406 836.988 285.262 838.379C284.56 842.15 284.971 854.402 285.03 858.912L282.937 859.088C279.31 856.82 283.215 842.974 281.277 839.12C280.55 837.675 278.779 837.345 277.162 836.638L277.116 835.597C278.318 834.429 279.875 834.484 281.629 834.24C281.659 831.26 281.714 828.281 281.794 825.302Z"/><path fill="#092664" d="M357.393 839.402C358.722 837.079 359.547 835.244 362.319 834.554C372.737 831.958 373.479 843.108 373.234 850.425C373.14 853.249 373.373 855.259 372.498 858.148L371.362 858.917C366.881 857.272 372.547 840.353 366.247 837.794C362.411 836.237 359.786 839.51 358.202 841.957L357.393 839.402Z"/><path fill="#092664" d="M707.348 834.462C708.889 834.466 710.019 834.241 711.165 835.166C710.798 837.378 705.386 839.207 704.11 842.32C702.233 846.9 705.641 857.115 701.693 859.694L700.744 858.452C700.352 855.225 700.2 838.427 700.687 835.401L701.722 835.039C705.878 836.215 701.565 835.939 704.3 837.388C705.483 835.995 705.924 835.638 707.348 834.462Z"/><path fill="#092664" d="M358.202 841.957C356.028 847.874 358.072 855.253 356.759 858.06C355.393 859.069 356.115 858.9 354.575 858.774C353.092 856.504 353.649 839.458 354.06 835.841C354.143 835.111 354.428 835.2 355.217 834.787L356.462 835.311C357.793 837.274 357.386 836.612 357.393 839.402L358.202 841.957Z"/><path fill="#092664" d="M334.812 835.061C336.213 835.187 336.932 835.102 338.043 835.953C338.619 840.07 338.252 854.124 338.231 858.886C336.907 858.78 336.584 858.728 335.293 858.413C334.551 856.023 334.81 838.722 334.812 835.061Z"/><path fill="#092664" d="M416.17 835.245C417.761 835.242 417.697 835.219 419.206 835.703C419.919 838.267 419.596 855.61 419.583 859.077C417.872 858.994 417.975 859.213 416.625 858.458C415.952 853.397 416.38 841.347 416.17 835.245Z"/><path fill="#092664" d="M648.039 853.675C649.571 853.057 651.319 853.739 652.029 855.23C652.739 856.722 652.165 858.508 650.719 859.307C649.702 859.869 648.458 859.82 647.488 859.181C646.518 858.542 645.983 857.417 646.099 856.262C646.214 855.106 646.962 854.11 648.039 853.675Z"/><path fill="#092664" d="M335.409 825.681C336.685 825.036 338.243 825.481 338.986 826.703C339.729 827.926 339.407 829.514 338.246 830.35C337.41 830.952 336.307 831.034 335.391 830.563C334.476 830.091 333.901 829.147 333.905 828.117C333.909 827.087 334.489 826.146 335.409 825.681Z"/><path fill="#092664" d="M417.076 825.73C418.488 825.347 419.952 826.143 420.398 827.537C420.843 828.931 420.111 830.428 418.738 830.934C417.795 831.281 416.737 831.083 415.983 830.418C415.23 829.752 414.903 828.727 415.131 827.748C415.359 826.769 416.106 825.994 417.076 825.73Z"/></svg>